<svg width="24" height="24" viewBox="0 0 24 24" fill="none" xmlns="http://www.w3.org/2000/svg">
<g clip-path="url(#clip0_479_2508)">
<path d="M12 24C18.6274 24 24 18.6274 24 12C24 5.37258 18.6274 0 12 0C5.37258 0 0 5.37258 0 12C0 18.6274 5.37258 24 12 24Z" fill="#36BFFA"/>
<path fill-rule="evenodd" clip-rule="evenodd" d="M8.25298 17.8523L3.8642 13.155C3.26335 12.5119 3.29783 11.4944 3.94092 10.8936C4.58401 10.2927 5.60146 10.3273 6.20231 10.9703L9.58763 14.5936L14.9461 9.58691C14.9943 9.54184 15.0447 9.50055 15.0968 9.46256L17.6167 7.1082C18.2598 6.50735 19.2773 6.54193 19.8781 7.18502C20.4789 7.82801 20.4443 8.84556 19.8013 9.44641L12.1049 16.6374L12.0967 16.6286L9.43437 19.1161L8.25298 17.8517V17.8523Z" fill="white"/>
</g>
<defs>
<clipPath id="clip0_479_2508">
<rect width="24" height="24" fill="white"/>
</clipPath>
</defs>
</svg>
