<svg width="24" height="24" viewBox="0 0 24 24" fill="none" xmlns="http://www.w3.org/2000/svg">
<path d="M17.0401 16.9499C15.5897 18.0358 13.8236 18.6373 12.0001 18.6666C6.06069 18.6666 2.66675 11.9999 2.66675 11.9999C3.72217 10.0682 5.18601 8.38044 6.96008 7.04994M10.2183 5.53327C10.8023 5.39901 11.4003 5.33189 12.0001 5.33327C17.9395 5.33327 21.3334 11.9999 21.3334 11.9999C20.8184 12.9463 20.2041 13.8372 19.5007 14.6583M13.7989 13.7666C13.5658 14.0122 13.2848 14.2092 12.9726 14.3459C12.6603 14.4825 12.3233 14.556 11.9815 14.5619C11.6397 14.5678 11.3002 14.5061 10.9833 14.3803C10.6663 14.2546 10.3784 14.0674 10.1367 13.8301C9.89497 13.5927 9.70441 13.3099 9.57639 12.9986C9.44837 12.6873 9.3855 12.3539 9.39153 12.0182C9.39756 11.6825 9.47237 11.3515 9.61149 11.0448C9.75062 10.7381 9.9512 10.4621 10.2013 10.2333" stroke="#AFAFAF" stroke-width="2" stroke-linecap="round" stroke-linejoin="round"/>
<path d="M2.66675 2.66675L21.3334 21.3334" stroke="#AFAFAF" stroke-width="2" stroke-linecap="round" stroke-linejoin="round"/>
</svg>
