<svg width="24" height="24" viewBox="0 0 24 24" fill="none" xmlns="http://www.w3.org/2000/svg">
<path d="M12 24C18.6274 24 24 18.6274 24 12C24 5.37258 18.6274 0 12 0C5.37258 0 0 5.37258 0 12C0 18.6274 5.37258 24 12 24Z" fill="#92C73D"/>
<path fill-rule="evenodd" clip-rule="evenodd" d="M8.25289 17.8525L3.8641 13.1552C3.26325 12.5121 3.29774 11.4947 3.94083 10.8938C4.58392 10.293 5.60136 10.3276 6.20221 10.9706L9.58754 14.5938L14.9461 9.58715C14.9942 9.54208 15.0446 9.50079 15.0967 9.46281L17.6166 7.10845C18.2597 6.5076 19.2772 6.54218 19.878 7.18526C20.4788 7.82826 20.4442 8.8458 19.8012 9.44665L12.1048 16.6377L12.0966 16.6289L9.43428 19.1164L8.25289 17.8519V17.8525Z" fill="white"/>
</svg>
